<svg xmlns="http://www.w3.org/2000/svg" viewBox="0 0 960 600"><style>.o{stroke:#35586b;stroke-width:3;stroke-linecap:round;stroke-linejoin:round}.s{stroke:#35586b;stroke-width:2}.skin{fill:#f6d2bd}.hair{fill:#334c5d}.white{fill:#fff}</style><rect width="100%" height="100%" fill="#f8fcfd"/><rect x="85" y="85" width="430" height="430" rx="38" fill="#e7f3f7" class="s"/><rect x="125" y="125" width="350" height="350" rx="175" class="white s"/><circle cx="300" cy="270" r="92" class="skin s"/><path d="M215 265q0-120 98-116 92 10 74 130-48-41-112-42z" class="hair"/><path d="M245 270q26-12 50 0M315 270q26-12 50 0" fill="none" class="o"/><path d="M248 286q23 18 46 0M316 286q23 18 46 0" fill="none" stroke="#8295a1" stroke-width="8" opacity=".35"/><path d="M278 327q24 10 46 0" fill="none" class="o"/><path d="M214 365q84-38 170 0l35 110H180z" fill="#bfe2ef" class="s"/><circle cx="720" cy="245" r="76" class="skin s"/><path d="M650 240q2-100 82-98 78 8 61 108-38-35-88-32z" class="hair"/><path d="M676 252q19 9 39 0M730 252q19 9 39 0" fill="none" class="o"/><path d="M688 285q18 8 36 0" fill="none" class="o"/><path d="M655 324q65-28 128 0l45 155H610z" fill="#cde9f1" class="s"/><path d="M575 120q40-35 80 0M780 115q38-30 75 0" fill="none" class="o" opacity=".35"/></svg>